<?xml version="1.0" encoding="utf-8"?>
<!-- Generator: Adobe Illustrator 26.3.1, SVG Export Plug-In . SVG Version: 6.00 Build 0)  -->
<svg version="1.1" id="logo" xmlns="http://www.w3.org/2000/svg" xmlns:xlink="http://www.w3.org/1999/xlink" x="0px"
	 y="0px" viewBox="0 0 48 48" style="enable-background:new 0 0 48 48;" xml:space="preserve">
<style type="text/css">
	.st0{fill:#F0F8FF;}
</style>
<g>
	<g>
		<rect x="4.3" y="37.3" class="st0" width="38.3" height="3.4"/>
	</g>
	<g>
		<path class="st0" d="M32.1,40.8H14.8L5.7,7.2h35.5L32.1,40.8z M17.5,37.3h12l7.3-26.6H10.2L17.5,37.3z"/>
	</g>
	<g>
		<path class="st0" d="M28.4,35.6l4.3-15.8c-3,0.9-6.4,0.7-8.2-0.3c-2.4-1.3-6.9-2.7-10.2-1.2L19,35.6H28.4z"/>
	</g>
	<path class="st0" d="M36.4,14.8l-0.8,3.4c2.7,0.4,4.7,2.7,4.7,5.5v0.7c0,3.1-2.5,5.6-5.6,5.6h-1.9L32,33.4h2.7c5,0,9-4.1,9-9v-0.7
		C43.7,19.3,40.5,15.6,36.4,14.8z"/>
</g>
</svg>
